<svg preserveAspectRatio="none" overflow="visible" style="display: block;" width="50" height="50" viewBox="0 0 50 50" fill="none" xmlns="http://www.w3.org/2000/svg">
<g id="icon">
<path id="Vector" d="M11.3095 7.29166C11.8848 7.29166 12.3512 6.82529 12.3512 6.24999C12.3512 5.67469 11.8848 5.20832 11.3095 5.20832V6.24999V7.29166ZM9.86613 6.27428L9.77438 5.23666L9.77437 5.23666L9.86613 6.27428ZM4.19096 11.9494L3.15334 11.8577L3.15334 11.8577L4.19096 11.9494ZM32.7138 11.9494L31.6761 12.0411L31.6762 12.0415L32.7138 11.9494ZM27.0385 6.27428L26.9467 7.3119L26.9468 7.3119L27.0385 6.27428ZM25.5952 5.20832C25.0199 5.20832 24.5535 5.67469 24.5535 6.24999C24.5535 6.82529 25.0199 7.29166 25.5952 7.29166V6.24999V5.20832ZM26.0417 4.16667C26.0417 3.59137 25.5753 3.125 25 3.125C24.4247 3.125 23.9583 3.59137 23.9583 4.16667H25H26.0417ZM23.9583 8.33331C23.9583 8.90861 24.4247 9.37498 25 9.37498C25.5753 9.37498 26.0417 8.90861 26.0417 8.33331H25H23.9583ZM13.5417 4.16667C13.5417 3.59137 13.0753 3.125 12.5 3.125C11.9247 3.125 11.4583 3.59137 11.4583 4.16667H12.5H13.5417ZM11.4583 8.33331C11.4583 8.90861 11.9247 9.37498 12.5 9.37498C13.0753 9.37498 13.5417 8.90861 13.5417 8.33331H12.5H11.4583ZM18.75 29.657H17.7083V35.4167H18.75H19.7917V29.657H18.75ZM18.75 35.4167H17.7083C17.7083 41.7449 22.8385 46.875 29.1667 46.875V45.8333V44.7917C23.989 44.7917 19.7917 40.5943 19.7917 35.4167H18.75ZM29.1667 45.8333V46.875H31.005V45.8333V44.7917H29.1667V45.8333ZM31.005 45.8333V46.875C35.4144 46.875 39.1286 43.9091 40.2663 39.8655L39.2635 39.5834L38.2608 39.3013C37.3693 42.4701 34.4568 44.7917 31.005 44.7917V45.8333ZM11.3095 6.24999V5.20832H11.1185V6.24999V7.29166H11.3095V6.24999ZM11.1185 6.24999V5.20832C10.489 5.20832 10.1064 5.2073 9.77438 5.23666L9.86613 6.27428L9.95787 7.3119C10.1753 7.29268 10.4445 7.29166 11.1185 7.29166V6.24999ZM9.86613 6.27428L9.77437 5.23666C6.25466 5.54792 3.4646 8.33796 3.15334 11.8577L4.19096 11.9494L5.22858 12.0412C5.4509 9.52712 7.4438 7.53422 9.95788 7.3119L9.86613 6.27428ZM4.19096 11.9494L3.15334 11.8577C3.12398 12.1897 3.125 12.5723 3.125 13.2018H4.16667H5.20833C5.20833 12.5278 5.20935 12.2586 5.22858 12.0412L4.19096 11.9494ZM4.16667 13.2018H3.125V15.0735H4.16667H5.20833V13.2018H4.16667ZM4.16667 15.0735H3.125C3.125 23.7029 10.1205 30.6986 18.75 30.6986V29.657V28.6153C11.2712 28.6153 5.20833 22.5523 5.20833 15.0735H4.16667ZM18.75 29.657V30.6986C27.0507 30.6986 33.7798 23.9694 33.7798 15.6687H32.7381H31.6965C31.6965 22.8188 25.9001 28.6153 18.75 28.6153V29.657ZM32.7381 15.6687H33.7798V13.2018H32.7381H31.6965V15.6687H32.7381ZM32.7381 13.2018H33.7798C33.7798 12.5724 33.7808 12.1896 33.7513 11.8574L32.7138 11.9494L31.6762 12.0415C31.6954 12.2587 31.6965 12.5277 31.6965 13.2018H32.7381ZM32.7138 11.9494L33.7514 11.8577C33.4403 8.33795 30.6502 5.54791 27.1303 5.23666L27.0385 6.27428L26.9468 7.3119C29.4611 7.53423 31.4539 9.52713 31.6761 12.0411L32.7138 11.9494ZM27.0385 6.27428L27.1303 5.23667C26.7984 5.2073 26.4156 5.20832 25.7863 5.20832V6.24999V7.29166C26.4602 7.29166 26.7295 7.29268 26.9467 7.3119L27.0385 6.27428ZM25.7863 6.24999V5.20832H25.5952V6.24999V7.29166H25.7863V6.24999ZM45.8333 33.3332H44.7917C44.7917 36.2097 42.4598 38.5415 39.5833 38.5415V39.5832V40.6248C43.6104 40.6248 46.875 37.3603 46.875 33.3332H45.8333ZM39.5833 39.5832V38.5415C36.7068 38.5415 34.375 36.2097 34.375 33.3332H33.3333H32.2917C32.2917 37.3603 35.5563 40.6248 39.5833 40.6248V39.5832ZM33.3333 33.3332H34.375C34.375 30.4567 36.7068 28.1249 39.5833 28.1249V27.0832V26.0416C35.5563 26.0416 32.2917 29.3061 32.2917 33.3332H33.3333ZM39.5833 27.0832V28.1249C42.4598 28.1249 44.7917 30.4567 44.7917 33.3332H45.8333H46.875C46.875 29.3061 43.6104 26.0416 39.5833 26.0416V27.0832ZM25 4.16667H23.9583V8.33331H25H26.0417V4.16667H25ZM12.5 4.16667H11.4583V8.33331H12.5H13.5417V4.16667H12.5Z" fill="#00AFEF"/>
</g>
</svg>
